<svg id="Layer_1" height="512" viewBox="0 0 128 128" width="512" xmlns="http://www.w3.org/2000/svg" data-name="Layer 1"><path d="m121.5 64a58.043 58.043 0 0 1 -.52 7.74c-.19 1.43-.43 2.84-.73 4.23a57.56 57.56 0 0 1 -30.14 39.27c-1.18.61-2.39 1.17-3.63 1.7a57.779 57.779 0 0 1 -38.29 2.36q-1.845-.525-3.63-1.17a57.575 57.575 0 0 1 -25.15-17.83 58.8 58.8 0 0 1 -3.9-5.37 57.65 57.65 0 0 1 -6.75-46.93c.46-1.62 1-3.2 1.6-4.75v-.01a57.648 57.648 0 0 1 19.18-25.28c.94-.7 1.91-1.38 2.89-2.02a57.181 57.181 0 0 1 31.57-9.44c.67 0 1.34.01 2 .04 1.37.04 2.73.14 4.07.28a57.024 57.024 0 0 1 26.29 9.65c1.1.74 2.17 1.53 3.21 2.35a57.381 57.381 0 0 1 21.93 45.18z" fill="#e57e25"/><g fill="#241429"><path d="m106.02 100.64c-.631.723-1.289 1.439-1.956 2.128a1.75 1.75 0 1 0 2.514 2.435c.709-.732 1.409-1.494 2.08-2.262a1.75 1.75 0 0 0 -2.638-2.3z"/><path d="m64 4.75a59.25 59.25 0 1 0 37.517 105.111 1.75 1.75 0 0 0 -2.218-2.708 55.38 55.38 0 0 1 -9.1 6.043c1.275-21.4-3.975-33.689-7.861-42.768a65.952 65.952 0 0 1 -3.318-8.8 44.924 44.924 0 0 1 -1.309-15.954c14.089 5.87 27.808 15.572 41.011 29.026a55.34 55.34 0 0 1 -8.763 20.87 1.75 1.75 0 1 0 2.883 1.984 59.257 59.257 0 0 0 -48.842-92.804zm-33.749 14.916a31.625 31.625 0 0 1 .675 17.027 75.928 75.928 0 0 0 -18.3 5.658 56.056 56.056 0 0 1 17.625-22.685zm-19.389 27.475a68.476 68.476 0 0 1 19.019-6.694c-.03.09-.052.177-.083.267a70.278 70.278 0 0 1 -3.941 8.586c-4.81 9.449-11.2 22.051-10.518 41.86a55.627 55.627 0 0 1 -4.477-44.02zm8.411 50.1c-2.387-22.567 4.59-36.308 9.7-46.353a72.563 72.563 0 0 0 4.134-9.044c.238-.7.448-1.388.641-2.072a77.9 77.9 0 0 1 16.437-.666c-6.747 21.534-8.669 46.973-5.882 77.041a56.021 56.021 0 0 1 -25.03-18.906zm59.845-25.435c4.08 9.53 9.136 21.361 7.452 43.156a55.611 55.611 0 0 1 -38.636 2.418c-2.992-30.632-1.075-56.348 5.838-77.957a85.36 85.36 0 0 1 20.59 4.925 48.228 48.228 0 0 0 1.27 18.168 68.409 68.409 0 0 0 3.486 9.29zm-2.962-34.93a23.329 23.329 0 0 0 -1.2 3.961 88.828 88.828 0 0 0 -20.056-4.812 117.086 117.086 0 0 1 6.645-15.386 1.75 1.75 0 1 0 -3.1-1.619 120.979 120.979 0 0 0 -7.114 16.664c-.247-.019-.493-.043-.74-.06a81.274 81.274 0 0 0 -15.995.5 34.66 34.66 0 0 0 -1.41-18.555 55.42 55.42 0 0 1 30.814-9.319c.284 0 .564.017.847.021-.8 1.189-1.588 2.386-2.337 3.589a1.751 1.751 0 0 0 .57 2.41 1.713 1.713 0 0 0 .92.26 1.758 1.758 0 0 0 1.49-.82c1.087-1.77 2.256-3.517 3.455-5.229a55.379 55.379 0 0 1 25.684 8.97c-8.756 4.585-15.42 11.549-18.473 19.425zm2.1 5.225a21.575 21.575 0 0 1 1.144-3.906c2.95-7.61 9.65-14.283 18.456-18.447a55.682 55.682 0 0 1 21.894 44.252 56.437 56.437 0 0 1 -.365 6.41c-13.226-13.088-26.979-22.557-41.129-28.31z"/><path d="m104.376 29.317a1.75 1.75 0 1 0 -2.653 2.282 49.954 49.954 0 0 1 10.432 19.881 1.75 1.75 0 0 0 3.388-.881 53.481 53.481 0 0 0 -11.167-21.282z"/></g></svg>